<svg width="162" height="51" viewBox="0 0 162 51" fill="none" xmlns="http://www.w3.org/2000/svg">
<path d="M27.3455 39.8434C25.1214 39.8434 23.0796 39.3481 21.2201 38.3575C19.3971 37.367 17.9387 35.9911 16.8449 34.2301C15.7875 32.4691 15.2588 30.3778 15.2588 27.9564V11.1716C15.2588 10.5846 15.113 10.0526 14.8213 9.57562C14.5296 9.09868 14.1468 8.71345 13.6728 8.41995C13.1988 8.12644 12.6701 7.97969 12.0867 7.97969C11.5034 7.97969 10.9747 8.12644 10.5007 8.41995C10.0267 8.71345 9.64386 9.09868 9.35218 9.57562C9.09695 10.0526 8.96934 10.5846 8.96934 11.1716V39.183H0V11.832C0 9.52059 0.51045 7.4844 1.53135 5.72336C2.58871 3.96233 4.02891 2.56818 5.85195 1.54091C7.71144 0.513635 9.78971 0 12.0867 0C14.4202 0 16.4985 0.513635 18.3215 1.54091C20.1446 2.56818 21.5847 3.96233 22.6421 5.72336C23.6995 7.4844 24.2281 9.52059 24.2281 11.832V28.6168C24.2281 29.2405 24.374 29.7908 24.6657 30.2678C24.9574 30.7447 25.322 31.13 25.7595 31.4235C26.2335 31.6803 26.7439 31.8087 27.2909 31.8087C27.8742 31.8087 28.4029 31.6803 28.8769 31.4235C29.3873 31.13 29.7884 30.7447 30.0801 30.2678C30.3718 29.7908 30.5176 29.2405 30.5176 28.6168V11.832C30.5176 9.52059 31.0463 7.4844 32.1037 5.72336C33.161 3.96233 34.6012 2.56818 36.4243 1.54091C38.2838 0.513635 40.3438 0 42.6044 0C44.9378 0 46.9979 0.513635 48.7844 1.54091C50.6075 2.56818 52.0477 3.96233 53.105 5.72336C54.1624 7.4844 54.6911 9.52059 54.6911 11.832V39.183C49.7375 39.183 45.7217 35.1423 45.7217 30.1577V11.1165C45.7217 10.5295 45.5759 10.0159 45.2842 9.57562C45.029 9.09868 44.6644 8.71345 44.1904 8.41995C43.7164 8.12644 43.1877 7.97969 42.6044 7.97969C42.0574 7.97969 41.5288 8.12644 41.0183 8.41995C40.5443 8.71345 40.1615 9.09868 39.8698 9.57562C39.5781 10.0159 39.4323 10.5295 39.4323 11.1165V27.9564C39.4323 30.3778 38.8854 32.4691 37.7915 34.2301C36.6977 35.9911 35.2393 37.367 33.4163 38.3575C31.5932 39.3481 29.5696 39.8434 27.3455 39.8434Z" fill="white"/>
<path d="M63.4634 39.183C60.2914 39.183 57.7041 39.1831 54.7209 39.1831C52.3145 37.9723 50.8116 34.5603 49.4625 32.4691C48.1499 30.3412 47.4937 27.8831 47.4937 25.0947C47.4937 22.0129 48.1317 19.3714 49.4078 17.1701C50.684 14.9688 52.3794 13.2811 54.4941 12.1071C56.6453 10.8964 59.0152 10.291 61.604 10.291C64.5573 10.291 67.0184 10.9147 68.9873 12.1621C70.9926 13.4095 72.5057 15.1155 73.5266 17.2802C74.5475 19.4081 75.058 21.8478 75.058 24.5995C75.058 25.0764 75.0215 25.6451 74.9486 26.3055C74.9121 26.9292 74.8574 27.4244 74.7845 27.7913H56.4083C56.6271 28.7452 57.0464 29.5524 57.6662 30.2128C58.286 30.8731 59.0699 31.3684 60.0179 31.6986C60.9659 31.9921 62.0233 32.1389 63.19 32.1389H74.5281V39.183H63.4634ZM56.1895 22.4532H66.8543C66.7814 21.8662 66.672 21.2975 66.5262 20.7472C66.3803 20.1969 66.1433 19.7199 65.8152 19.3163C65.5235 18.8761 65.1771 18.5092 64.776 18.2157C64.375 17.8855 63.901 17.6287 63.3541 17.4452C62.8436 17.2618 62.2602 17.1701 61.604 17.1701C60.7654 17.1701 60.0179 17.3168 59.3616 17.6103C58.7053 17.9039 58.1584 18.3074 57.7209 18.8211C57.2834 19.298 56.937 19.8667 56.6818 20.5271C56.463 21.1508 56.2989 21.7928 56.1895 22.4532Z" fill="white"/>
<path d="M74.5281 39.183V22.9485C74.5281 20.6004 75.0933 18.4725 76.2236 16.5647C77.3539 14.6569 78.9581 13.1344 81.0364 11.997C83.1511 10.8597 85.6487 10.291 88.5291 10.291C91.4459 10.291 93.9252 10.8597 95.967 11.997C98.0453 13.1344 99.6313 14.6569 100.725 16.5647C101.819 18.4725 102.366 20.6004 102.366 22.9485V39.183H93.8888V23.1686C93.8888 22.178 93.6518 21.2792 93.1778 20.472C92.7038 19.6282 92.0475 18.9678 91.2089 18.4909C90.4068 17.9772 89.4953 17.7204 88.4744 17.7204C87.417 17.7204 86.469 17.9772 85.6304 18.4909C84.8283 18.9678 84.1902 19.6282 83.7162 20.472C83.2422 21.2792 83.0053 22.178 83.0053 23.1686V30.653C83.0053 35.364 79.2099 39.183 74.5281 39.183Z" fill="white"/>
<path d="M118.441 51C115.561 51 113.063 50.4497 110.948 49.349C108.87 48.2117 107.266 46.6891 106.136 44.7813C105.005 42.8369 104.44 40.6906 104.44 38.3426V22.108H112.917V38.1224C112.917 39.113 113.154 40.0302 113.628 40.8741C114.102 41.6812 114.74 42.3416 115.542 42.8552C116.381 43.3322 117.329 43.5706 118.386 43.5706C119.407 43.5706 120.319 43.3322 121.121 42.8552C121.959 42.3416 122.616 41.6812 123.09 40.8741C123.564 40.0302 123.801 39.113 123.801 38.1224V22.108H132.278V38.3426C132.278 40.6906 131.731 42.8369 130.637 44.7813C129.543 46.6891 127.957 48.2117 125.879 49.349C123.837 50.4497 121.358 51 118.441 51Z" fill="#FF4444"/>
<path d="M123.333 40.3337V0.160128H131.811V13.9732C132.904 13.0927 134.108 12.4507 135.42 12.0471C136.733 11.6435 138.045 11.4418 139.358 11.4418C141.91 11.4418 144.061 11.9921 145.811 13.0927C147.598 14.1934 148.929 15.6976 149.804 17.6054C150.715 19.5132 151.171 21.6778 151.171 24.0992V40.3337H142.694V24.4294C142.694 23.3654 142.439 22.4299 141.928 21.6227C141.454 20.7789 140.798 20.1185 139.959 19.6416C139.157 19.1279 138.264 18.8711 137.28 18.8711C136.295 18.8711 135.384 19.1096 134.545 19.5865C133.706 20.0635 133.032 20.7055 132.521 21.5127C132.048 22.3198 131.811 23.237 131.811 24.2643V40.3337H123.333Z" fill="#FF4444"/>
<path d="M152.593 27.0159V1.8111H160.906V27.0159H152.593ZM156.75 40.9941C155.291 40.9941 154.033 40.4805 152.976 39.4532C151.955 38.3893 151.445 37.1419 151.445 35.711C151.445 34.2435 151.955 32.9961 152.976 31.9688C154.033 30.9049 155.291 30.3729 156.75 30.3729C158.172 30.3729 159.393 30.9049 160.414 31.9688C161.471 32.9961 162 34.2435 162 35.711C162 36.6649 161.763 37.5454 161.289 38.3526C160.815 39.1597 160.177 39.8018 159.375 40.2787C158.609 40.7556 157.734 40.9941 156.75 40.9941Z" fill="#FF4444"/>
</svg>
